<?xml version="1.0" encoding="utf-8"?>
<svg id="visual" width="1300px" height="450" version="1.1" viewBox="-0.702 198.53 1019.1 100" xmlns="http://www.w3.org/2000/svg">
  <path d="M 0 209 L 56.675 222.7 C 113.347 236.3 226.697 263.7 340.045 277.3 C 453.393 291 566.742 291 680.09 286.3 C 793.439 281.7 906.788 272.3 963.462 267.7 L 1020.134 263 L 1020.134 451 L 963.462 451 C 906.788 451 793.439 451 680.09 451 C 566.742 451 453.393 451 340.045 451 C 226.697 451 113.347 451 56.675 451 L 0 451 L 0 209 Z" fill="#fa7268" style=""/>
  <path d="M -0.003 291 L 56.594 296 C 113.19 301 226.384 311 339.577 320.5 C 452.771 330 565.964 339 679.159 339 C 792.352 339 905.545 330 962.14 325.5 L 1018.735 321 L 1018.74 451 L 962.145 451 C 905.549 451 792.356 451 679.163 451 C 565.968 451 452.775 451 339.582 451 C 226.389 451 113.195 451 56.6 451 L 0.003 451 L -0.003 291 Z" fill="#e34c67" style="" transform="matrix(1, 0.000035, -0.000035, 1, 0.013088, -0.017969)"/>
  <path d="M 0 395 L 56.675 391.7 C 113.348 388.3 226.697 381.7 340.045 383.5 C 453.394 385.3 566.741 395.7 680.09 400 C 793.439 404.3 906.787 402.7 963.462 401.8 L 1020.136 401 L 1020.136 451 L 963.462 451 C 906.787 451 793.439 451 680.09 451 C 566.741 451 453.394 451 340.045 451 C 226.697 451 113.348 451 56.675 451 L 0 451 L 0 395 Z" fill="#c62368" style=""/>
</svg>
